<svg width="261" height="217" viewBox="0 0 261 217" fill="none" xmlns="http://www.w3.org/2000/svg">
<path d="M260.061 206.061C260.646 205.475 260.646 204.525 260.061 203.939L250.515 194.393C249.929 193.808 248.979 193.808 248.393 194.393C247.808 194.979 247.808 195.929 248.393 196.515L256.879 205L248.393 213.485C247.808 214.071 247.808 215.021 248.393 215.607C248.979 216.192 249.929 216.192 250.515 215.607L260.061 206.061ZM12 205H10.5V206.5H12V205ZM13.0607 0.93934C12.4749 0.353553 11.5251 0.353553 10.9393 0.93934L1.3934 10.4853C0.807611 11.0711 0.807611 12.0208 1.3934 12.6066C1.97919 13.1924 2.92893 13.1924 3.51472 12.6066L12 4.12132L20.4853 12.6066C21.0711 13.1924 22.0208 13.1924 22.6066 12.6066C23.1924 12.0208 23.1924 11.0711 22.6066 10.4853L13.0607 0.93934ZM259 203.5H12V206.5H259V203.5ZM13.5 205V2H10.5V205H13.5Z" fill="#C5C5C5"/>
<path d="M12.5 204L176 74.5" stroke="#C5C5C5" stroke-width="5" stroke-linejoin="round" stroke-dasharray="0.1 8"/>
<path d="M65.9998 134.641L126.604 134.266" stroke="#C5C5C5" stroke-width="5" stroke-linejoin="round" stroke-dasharray="0.1 8"/>
<path d="M13 109H259" stroke="#C5C5C5" stroke-width="4" stroke-linecap="round" stroke-linejoin="round" stroke-dasharray="15 10"/>
</svg>
